<svg width="23" height="24" xmlns="http://www.w3.org/2000/svg" xmlns:xlink="http://www.w3.org/1999/xlink">
    <defs>
        <path id="b" d="M0 .078h20.701V20.7H0z"/>
        <path id="d" d="M.05.134h11.563v11.563H.051z"/>
        <filter id="a">
            <feColorMatrix in="SourceGraphic" values="0 0 0 0 0.000000 0 0 0 0 0.635294 0 0 0 0 0.690196 0 0 0 1.000000 0"/>
        </filter>
    </defs>
    <g transform="translate(-1011 -5491)" filter="url(#a)" fill="none" fill-rule="evenodd">
        <g transform="translate(1011 5493.7)">
            <mask id="c" fill="#fff">
                <use xlink:href="#b"/>
            </mask>
            <path d="M2.623 1.87a2.526 2.526 0 0 1 1.9-.873c.636 0 1.246.244 1.718.686l1.102 1.034c.508.476.806 1.128.84 1.836.034.71-.2 1.39-.658 1.916l-.654.748c-.313.36-.714.623-1.158.762l-.2.062a.448.448 0 0 0-.278.257.474.474 0 0 0 .01.387l.092.193c1.447 3.013 3.905 5.353 6.923 6.589l.172.07a.43.43 0 0 0 .35-.011.457.457 0 0 0 .232-.271l.058-.18c.113-.348.29-.662.528-.934l.654-.75a2.527 2.527 0 0 1 1.9-.874c.635 0 1.245.244 1.717.686l1.103 1.035c1.047.982 1.128 2.665.18 3.75l-.653.75c-.178.206-.389.382-.636.53-.627.4-1.447.575-2.312.494C8.333 19.09 2.336 13.465.97 6.082c-.29-1.548.254-2.685.69-3.072a.438.438 0 0 0 .04-.04l.03-.035a.503.503 0 0 0 .036-.047c.063-.094.132-.184.205-.268l.653-.75zm-1.31.134a3.5 3.5 0 0 0-.257.332C.334 2.999-.237 4.458.1 6.256c1.44 7.783 7.763 13.713 15.375 14.42.164.016.327.024.488.024.875 0 1.7-.224 2.357-.642.317-.19.6-.427.84-.703l.653-.75c1.275-1.462 1.166-3.727-.244-5.049l-1.103-1.034a3.372 3.372 0 0 0-2.311-.924 3.4 3.4 0 0 0-2.558 1.177l-.653.75c-.255.292-.46.62-.609.98C9.729 13.37 7.591 11.34 6.269 8.75c.479-.202.91-.514 1.26-.915l.653-.749a3.632 3.632 0 0 0 .886-2.578 3.604 3.604 0 0 0-1.13-2.472L6.835 1.002A3.373 3.373 0 0 0 4.524.078a3.4 3.4 0 0 0-2.558 1.176l-.653.75z" fill="#363636" mask="url(#c)"/>
        </g>
        <g transform="translate(1021.8 5491)">
            <mask id="e" fill="#fff">
                <use xlink:href="#d"/>
            </mask>
            <path d="M10.682 11.25a.484.484 0 0 1-.483-.484c0-5.082-4.135-9.217-9.217-9.217a.484.484 0 0 1 0-.967c5.615 0 10.184 4.568 10.184 10.184a.484.484 0 0 1-.484.483m.931-.483C11.613 4.904 6.844.134.982.134a.932.932 0 0 0 0 1.863c4.835 0 8.77 3.934 8.77 8.77a.932.932 0 0 0 1.861 0" fill="#363636" mask="url(#e)"/>
        </g>
        <path d="M1028.982 5502.259a.477.477 0 0 1-.477-.477 5.794 5.794 0 0 0-5.787-5.787.477.477 0 0 1 0-.953 6.748 6.748 0 0 1 6.74 6.74.477.477 0 0 1-.476.477m-6.264-7.659a.919.919 0 0 0 0 1.836 5.352 5.352 0 0 1 5.346 5.346.92.92 0 0 0 1.836 0c0-3.96-3.222-7.182-7.182-7.182" fill="#363636"/>
    </g>
</svg>
