<svg width="25" height="25" xmlns="http://www.w3.org/2000/svg">
    <defs>
        <filter id="a">
            <feColorMatrix in="SourceGraphic" values="0 0 0 0 0.000000 0 0 0 0 0.635294 0 0 0 0 0.690196 0 0 0 1.000000 0"/>
        </filter>
    </defs>
    <g transform="translate(-1010 -5529)" filter="url(#a)" fill="none" fill-rule="evenodd" stroke-linecap="round" stroke-linejoin="round">
        <g stroke="#333" stroke-width=".9">
            <path d="M1013.7 5544.4h3.6v-3.6h-3.6zM1020.9 5544.4h3.6v-3.6h-3.6zM1028.1 5544.4h3.6v-3.6h-3.6zM1013.7 5550.7h3.6v-3.6h-3.6zM1020.9 5550.7h3.6v-3.6h-3.6zM1028.1 5550.7h3.6v-3.6h-3.6zM1034.046 5534.958v2.96h-22.691v-2.96c0-1.14.958-2.062 2.142-2.062h2.522v1.896c0 .358.287.645.645.645h1.493a.643.643 0 0 0 .645-.645v-1.896h2.506v1.896c0 .358.287.645.645.645h1.494a.643.643 0 0 0 .645-.645v-1.896h2.506v1.896c0 .358.287.645.645.645h1.493a.643.643 0 0 0 .645-.645v-1.896h2.522c1.184 0 2.143.923 2.143 2.062z"/>
            <path d="M1034.046 5537.918h-22.691v12.984c0 1.184.959 2.143 2.142 2.143h18.406c1.182 0 2.143-.96 2.143-2.143v-12.984zM1018.802 5531v3.792a.643.643 0 0 1-.645.645h-1.493a.643.643 0 0 1-.645-.645V5531c0-.358.287-.645.645-.645h1.493c.358 0 .645.287.645.645zM1029.381 5531v3.792a.643.643 0 0 1-.645.645h-1.493a.643.643 0 0 1-.645-.645V5531c0-.358.287-.645.645-.645h1.493c.358 0 .645.287.645.645zM1024.092 5531v3.792a.643.643 0 0 1-.645.645h-1.494a.643.643 0 0 1-.645-.645V5531c0-.358.287-.645.645-.645h1.494c.358 0 .645.287.645.645z"/>
        </g>
    </g>
</svg>
