<svg width="23" height="26" xmlns="http://www.w3.org/2000/svg" xmlns:xlink="http://www.w3.org/1999/xlink">
    <defs>
        <filter id="a">
            <feColorMatrix in="SourceGraphic" values="0 0 0 0 0.000000 0 0 0 0 0.635294 0 0 0 0 0.690196 0 0 0 1.000000 0"/>
        </filter>
        <path id="b" d="M0 0h22.5v25.2H0z"/>
    </defs>
    <g transform="translate(-1011 -5610)" filter="url(#a)" fill="none" fill-rule="evenodd">
        <g transform="translate(1011 5610)">
            <mask id="c" fill="#fff">
                <use xlink:href="#b"/>
            </mask>
            <path d="M.927 12.012c0-.18.045-.348.12-.5L7.84 18.26l-5.99 5.947a1.154 1.154 0 0 1-.924-1.127V12.012zM11.25 1.322l9.448 9.383-2.42 2.404V10.07a.332.332 0 0 0-.334-.33H4.742a.331.331 0 0 0-.333.33v3.223l-2.607-2.589 9.448-9.382zm10.323 10.69v11.067c0 .555-.397 1.02-.925 1.127l-5.989-5.947 6.795-6.747c.074.152.12.32.12.5zm-16.5 2.254v-3.864h12.54v3.679l-6.363 6.318-6.176-6.133zM3.397 24.23l5.229-5.193 2.233 2.218a.555.555 0 0 0 .784 0l2.233-2.218 5.229 5.193H3.396zM.464 10.713c-.29.355-.464.807-.464 1.299v11.067a2.08 2.08 0 0 0 2.085 2.07h.283l.05.051.051-.05H20.03l.051.05.051-.05h.283a2.08 2.08 0 0 0 2.085-2.07V12.011c0-.492-.174-.944-.464-1.3a.546.546 0 0 0-.162-.396L11.642.155a.573.573 0 0 0-.784 0L.626 10.315a.545.545 0 0 0-.162.398z" fill="#000000" mask="url(#c)"/>
        </g>
    </g>
</svg>
